<svg xmlns="http://www.w3.org/2000/svg" viewBox="0 0 32 32"><defs><mask id="m"><rect width="32" height="32" fill="#fff"/><g fill="#000"><rect x="7.6" y="11" width="2.6" height="5" rx="1.3"/><rect x="11.6" y="7.5" width="2.6" height="12" rx="1.3"/><rect x="15.6" y="9.5" width="2.6" height="8" rx="1.3"/><rect x="19.6" y="6" width="2.6" height="15" rx="1.3"/><rect x="23.6" y="10.5" width="2.6" height="6" rx="1.3"/></g></mask></defs><path mask="url(#m)" fill="#E04040" d="M8 3h16a5.5 5.5 0 0 1 5.5 5.5v10A5.5 5.5 0 0 1 24 24h-8l-6.5 5.5V24H8a5.5 5.5 0 0 1-5.5-5.5v-10A5.5 5.5 0 0 1 8 3z"/></svg>